<svg width="30" height="30" viewBox="0 0 30 30" fill="none" xmlns="http://www.w3.org/2000/svg">
<path d="M26.25 15H22.3204C21.7964 15 21.5344 15 21.3133 15.1183C21.0922 15.2367 20.9469 15.4546 20.6563 15.8906L19.3437 17.8594C19.0531 18.2954 18.9078 18.5133 18.6867 18.6317C18.4656 18.75 18.2036 18.75 17.6796 18.75H12.3204C11.7964 18.75 11.5344 18.75 11.3133 18.6317C11.0922 18.5133 10.9469 18.2954 10.6563 17.8594L9.34373 15.8906C9.05309 15.4546 8.90777 15.2367 8.68667 15.1183C8.46558 15 8.2036 15 7.67963 15H3.75" stroke="#31587C" stroke-width="2"/>
<path d="M10.625 10L15 6.25M15 6.25L19.375 10M15 6.25L15 15" stroke="#31587C" stroke-width="2"/>
<path d="M6.25 11.25L4.04289 13.4571C3.85536 13.6446 3.75 13.899 3.75 14.1642V21.75C3.75 22.8546 4.64543 23.75 5.75 23.75H24.25C25.3546 23.75 26.25 22.8546 26.25 21.75V14.1642C26.25 13.899 26.1446 13.6446 25.9571 13.4571L23.75 11.25" stroke="#31587C" stroke-width="2" stroke-linecap="round"/>
</svg>
