<svg width="59" height="55" viewBox="0 0 59 55" fill="none" xmlns="http://www.w3.org/2000/svg">
<path d="M16.4167 18.8762C16.9629 14.2149 17.236 11.8842 18.4476 10.2011C19.1352 9.24595 20.025 8.45429 21.0537 7.88254C22.8664 6.875 25.213 6.875 29.9063 6.875V6.875C34.5995 6.875 36.9461 6.875 38.7588 7.88254C39.7875 8.45429 40.6773 9.24595 41.3649 10.2011C42.5765 11.8842 42.8496 14.2149 43.3958 18.8762L43.9825 23.8838C44.1935 25.6843 44.299 26.5845 44.599 27.4317C44.8991 28.2789 45.3837 29.0449 46.353 30.5768L49.7142 35.889C50.5722 37.245 51.0012 37.923 50.7161 38.4407C50.4311 38.9583 49.6288 38.9583 48.0241 38.9583H11.7884C10.1837 38.9583 9.3814 38.9583 9.09636 38.4407C8.81132 37.923 9.24032 37.245 10.0983 35.889L13.4595 30.5768C14.4288 29.0449 14.9134 28.2789 15.2135 27.4317C15.5135 26.5845 15.619 25.6843 15.83 23.8838L16.4167 18.8762Z" stroke="#6AA4D9" stroke-width="2"/>
<path d="M20.2394 38.9583C20.2394 40.1621 20.4895 41.3541 20.9753 42.4663C21.461 43.5784 22.1731 44.5889 23.0707 45.4401C23.9684 46.2913 25.034 46.9666 26.2068 47.4272C27.3796 47.8879 28.6366 48.125 29.9061 48.125C31.1755 48.125 32.4325 47.8879 33.6054 47.4272C34.7782 46.9666 35.8438 46.2913 36.7415 45.4401C37.6391 44.5889 38.3511 43.5784 38.8369 42.4663C39.3227 41.3541 39.5728 40.1621 39.5728 38.9583" stroke="#6AA4D9" stroke-width="2" stroke-linecap="round"/>
</svg>
