<svg width="20" height="19" viewBox="0 0 20 19" fill="none" xmlns="http://www.w3.org/2000/svg">
<path d="M15.7995 4.57402C16.3332 5.37273 16.3332 6.48459 16.3332 8.70832C16.3332 10.9321 16.3332 12.0439 15.7995 12.8426C15.5685 13.1884 15.2716 13.4853 14.9258 13.7163C14.2281 14.1825 13.2914 14.2415 11.5832 14.2489V14.25L10.7079 16.0005C10.4162 16.584 9.5835 16.584 9.29175 16.0005L8.4165 14.25V14.2489C6.70832 14.2415 5.7716 14.1825 5.07386 13.7163C4.7281 13.4853 4.43122 13.1884 4.20018 12.8426C3.6665 12.0439 3.6665 10.9321 3.6665 8.70832C3.6665 6.48459 3.6665 5.37273 4.20018 4.57402C4.43122 4.22825 4.7281 3.93137 5.07386 3.70034C5.87257 3.16666 6.98444 3.16666 9.20817 3.16666H10.7915C13.0152 3.16666 14.1271 3.16666 14.9258 3.70034C15.2716 3.93137 15.5685 4.22825 15.7995 4.57402Z" stroke="#31587C" stroke-width="2" stroke-linecap="round" stroke-linejoin="round"/>
<path d="M7.625 7.125L12.375 7.125" stroke="#31587C" stroke-width="2" stroke-linecap="round" stroke-linejoin="round"/>
<path d="M7.625 10.2917H10" stroke="#31587C" stroke-width="2" stroke-linecap="round" stroke-linejoin="round"/>
</svg>
