<svg width="51" height="53" viewBox="0 0 51 53" fill="none" xmlns="http://www.w3.org/2000/svg">
<path d="M41.9997 43.207C42.5894 43.0841 42.9398 42.47 42.6921 41.921C41.4893 39.2549 39.3122 36.9098 36.4141 35.1801C33.1395 33.2258 29.1273 32.1665 24.9998 32.1665C20.8723 32.1665 16.8601 33.2258 13.5855 35.1801C10.6874 36.9097 8.51031 39.2549 7.30749 41.921C7.05981 42.47 7.4102 43.0841 7.99981 43.207L16.8389 45.0491C22.2217 46.1709 27.7779 46.1709 33.1606 45.0491L41.9997 43.207Z" fill="white"/>
<circle cx="25.0007" cy="19.6667" r="10.4167" fill="white"/>
<path d="M46.8327 12.1665C46.8327 8.39527 46.8327 6.50965 45.6611 5.33808C44.4895 4.1665 42.6039 4.1665 38.8327 4.1665H38.166C34.3948 4.1665 32.5092 4.1665 31.3376 5.33808C30.166 6.50965 30.166 8.39527 30.166 12.1665V18.8332C30.166 19.776 30.166 20.2474 30.4589 20.5403C30.7518 20.8332 31.2232 20.8332 32.166 20.8332H38.8327C42.6039 20.8332 44.4895 20.8332 45.6611 19.6616C46.8327 18.49 46.8327 16.6044 46.8327 12.8332V12.1665Z" fill="#31587C" stroke="white" stroke-width="1.2"/>
<path d="M35.375 10.4165L41.625 10.4165" stroke="white" stroke-width="1.2" stroke-linecap="round" stroke-linejoin="round"/>
<path d="M35.375 14.5835H38.5" stroke="white" stroke-width="1.2" stroke-linecap="round" stroke-linejoin="round"/>
</svg>
