<svg width="30" height="30" viewBox="0 0 30 30" fill="none" xmlns="http://www.w3.org/2000/svg">
<path d="M19.5478 10.8314C20.2473 9.8946 20.1213 8.51386 19.2664 7.74741C18.4115 6.98096 17.1514 7.11903 16.452 8.0558L8.70471 18.4318L5.24944 15.4028C4.38691 14.6467 3.12835 14.7999 2.43833 15.745C1.74832 16.6902 1.88817 18.0692 2.75068 18.8254L6.97832 22.5315C8.26201 23.6568 10.1332 23.4404 11.1742 22.0462L19.5478 10.8314Z" stroke="#31587C" stroke-linecap="round"/>
<path d="M27.5227 10.8314C28.2611 9.8946 28.1281 8.51386 27.2257 7.74741C26.3233 6.98096 24.9932 7.11903 24.2549 8.0558L16.0772 18.4318L12.43 15.4028C11.5195 14.6467 10.191 14.7999 9.46268 15.745C8.73433 16.6902 8.88195 18.0692 9.79238 18.8254L14.2549 22.5315C15.6099 23.6568 17.585 23.4404 18.6839 22.0462L27.5227 10.8314Z" fill="white" stroke="#31587C" stroke-linecap="round"/>
</svg>
