<svg width="30" height="31" viewBox="0 0 30 31" fill="none" xmlns="http://www.w3.org/2000/svg">
<path fill-rule="evenodd" clip-rule="evenodd" d="M26.25 14.7253V22.4753C26.25 25.3038 26.25 26.718 25.3713 27.5967C24.4926 28.4753 23.0784 28.4753 20.25 28.4753H9.75C6.92157 28.4753 5.50736 28.4753 4.62868 27.5967C3.75 26.718 3.75 25.3038 3.75 22.4753V14.7253C3.75 16.3691 3.75 17.191 4.20398 17.7441C4.28709 17.8454 4.37995 17.9383 4.48121 18.0214C5.03439 18.4753 5.85626 18.4753 7.5 18.4753H8.55848C9.2542 18.4753 9.60206 18.4753 9.86395 18.6641C10.1258 18.8529 10.2358 19.1829 10.4558 19.8429L10.7942 20.8578C11.0142 21.5178 11.1242 21.8478 11.386 22.0366C11.6479 22.2253 11.9958 22.2253 12.6915 22.2253H17.3085C18.0042 22.2253 18.3521 22.2253 18.614 22.0366C18.8758 21.8478 18.9858 21.5178 19.2058 20.8578L19.5442 19.8429C19.7642 19.1829 19.8742 18.8529 20.136 18.6641C20.3979 18.4753 20.7458 18.4753 21.4415 18.4753H22.5C24.1437 18.4753 24.9656 18.4753 25.5188 18.0214C25.6201 17.9383 25.7129 17.8454 25.796 17.7441C26.25 17.191 26.25 16.3691 26.25 14.7253Z" fill="white"/>
<path d="M20 8.47534H22.25C24.1356 8.47534 25.0784 8.47534 25.6642 9.06113C26.25 9.64691 26.25 10.5897 26.25 12.4753V24.4753C26.25 26.361 26.25 27.3038 25.6642 27.8896C25.0784 28.4753 24.1356 28.4753 22.25 28.4753H7.75C5.86438 28.4753 4.92157 28.4753 4.33579 27.8896C3.75 27.3038 3.75 26.361 3.75 24.4753V12.4753C3.75 10.5897 3.75 9.64691 4.33579 9.06113C4.92157 8.47534 5.86438 8.47534 7.75 8.47534H10" stroke="white" stroke-width="2"/>
<path d="M10 13.4753L15 17.2253M15 17.2253L20 13.4753M15 17.2253L15 4.72534" stroke="white" stroke-width="2"/>
</svg>
