<svg width="34" height="39" viewBox="0 0 34 39" fill="none" xmlns="http://www.w3.org/2000/svg">
<path d="M9 21.5L21 21.5" stroke="#33363F" stroke-width="2" stroke-linecap="round"/>
<path d="M9 13.5L17 13.5" stroke="#33363F" stroke-width="2" stroke-linecap="round"/>
<path d="M9 29.5L17 29.5" stroke="#33363F" stroke-width="2" stroke-linecap="round"/>
<path d="M29 21.5V31.5C29 34.3284 29 35.7426 28.1213 36.6213C27.2426 37.5 25.8284 37.5 23 37.5H7C4.17157 37.5 2.75736 37.5 1.87868 36.6213C1 35.7426 1 34.3284 1 31.5V7.5C1 4.67157 1 3.25736 1.87868 2.37868C2.75736 1.5 4.17157 1.5 7 1.5H13" stroke="#33363F" stroke-width="2"/>
<path d="M27 1.5L27 13.5" stroke="#33363F" stroke-width="2" stroke-linecap="round"/>
<path d="M33 7.5L21 7.5" stroke="#33363F" stroke-width="2" stroke-linecap="round"/>
</svg>
