<svg width="39" height="39" viewBox="0 0 39 39" fill="none" xmlns="http://www.w3.org/2000/svg">
<path d="M1.5 9.5C1.5 5.72876 1.5 3.84315 2.67157 2.67157C3.84315 1.5 5.72876 1.5 9.5 1.5H29.5C33.2712 1.5 35.1569 1.5 36.3284 2.67157C37.5 3.84315 37.5 5.72876 37.5 9.5V29.5C37.5 33.2712 37.5 35.1569 36.3284 36.3284C35.1569 37.5 33.2712 37.5 29.5 37.5H9.5C5.72876 37.5 3.84315 37.5 2.67157 36.3284C1.5 35.1569 1.5 33.2712 1.5 29.5V9.5Z" stroke="#33363F" stroke-width="2"/>
<path fill-rule="evenodd" clip-rule="evenodd" d="M35.5 26.0855L31.0355 21.621L30.989 21.5745C30.3622 20.9476 29.8221 20.4075 29.3315 20.0331C28.8056 19.6319 28.2208 19.3281 27.5 19.3281C26.7792 19.3281 26.1944 19.6319 25.6685 20.0331C25.1779 20.4075 24.6378 20.9476 24.011 21.5744L23.9645 21.621L20.8817 24.7038C20.3853 25.2002 20.0912 25.4906 19.8628 25.6602L19.8528 25.6675L19.8463 25.657C19.6973 25.4147 19.532 25.0359 19.2555 24.3906L16.7465 18.5362L16.715 18.4629C16.2147 17.2952 15.7952 16.3164 15.3625 15.6131C14.91 14.8776 14.3195 14.2354 13.3927 14.0569C12.4659 13.8784 11.6791 14.2554 10.9858 14.7702C10.3228 15.2625 9.56986 16.0156 8.67165 16.9138L8.61521 16.9703L3.5 22.0855V24.9139L10.0294 18.3845C10.9991 17.4149 11.6481 16.7696 12.1782 16.3759C12.6918 15.9945 12.8993 15.9986 13.0145 16.0208C13.1297 16.043 13.3239 16.1163 13.6591 16.6611C14.0051 17.2235 14.368 18.0637 14.9082 19.3241L17.4172 25.1784L17.444 25.2409L17.444 25.241C17.6843 25.802 17.9068 26.3213 18.1429 26.705C18.3985 27.1205 18.7928 27.5838 19.4591 27.7121C20.1254 27.8404 20.6636 27.5567 21.0552 27.2659C21.4169 26.9973 21.8164 26.5977 22.2479 26.166L22.2959 26.118L25.3787 23.0352C26.0653 22.3486 26.5107 21.9062 26.8817 21.6232C27.2296 21.3577 27.3923 21.3281 27.5 21.3281C27.6077 21.3281 27.7704 21.3577 28.1183 21.6232C28.4893 21.9062 28.9347 22.3486 29.6213 23.0352L34.7929 28.2068L35.5 27.4997V26.0855ZM19.7161 25.7527C19.7161 25.7526 19.7176 25.752 19.7205 25.7511C19.7175 25.7524 19.716 25.7528 19.7161 25.7527ZM19.947 25.7962C19.9465 25.7957 19.9457 25.7951 19.9447 25.7942C19.947 25.7966 19.9482 25.7975 19.9482 25.7974C19.9482 25.7974 19.9478 25.797 19.947 25.7962Z" fill="#33363F"/>
<circle cx="28.5" cy="10.5" r="3" fill="#33363F"/>
</svg>
