<svg width="25" height="24" viewBox="0 0 25 24" fill="none" xmlns="http://www.w3.org/2000/svg">
<path d="M20.9534 12V17C20.9534 18.8856 20.9534 19.8284 20.3676 20.4142C19.7818 21 18.839 21 16.9534 21H7.45337C6.07266 21 4.95337 19.8807 4.95337 18.5V18.5C4.95337 17.1193 6.07266 16 7.45337 16H16.9534C18.839 16 19.7818 16 20.3676 15.4142C20.9534 14.8284 20.9534 13.8856 20.9534 12V7C20.9534 5.11438 20.9534 4.17157 20.3676 3.58579C19.7818 3 18.839 3 16.9534 3H8.95337C7.06775 3 6.12494 3 5.53916 3.58579C4.95337 4.17157 4.95337 5.11438 4.95337 7V18.5" stroke="#31587C" stroke-width="2"/>
<path d="M9.95337 10L11.2463 11.2929C11.6368 11.6834 12.27 11.6834 12.6605 11.2929L15.9534 8" stroke="#31587C" stroke-width="2" stroke-linecap="round"/>
</svg>
