<svg width="30" height="31" viewBox="0 0 30 31" fill="none" xmlns="http://www.w3.org/2000/svg">
<path d="M6.67962 5.87467L8.87184 3.68245C9.26236 3.29192 9.89553 3.29192 10.2861 3.68245L14.135 7.53139C14.5255 7.92192 14.5255 8.55508 14.135 8.94561L11.5533 11.5273C11.16 11.9206 11.0625 12.5214 11.3112 13.0188C12.7491 15.8945 15.0808 18.2263 17.9565 19.6641C18.4539 19.9128 19.0547 19.8153 19.448 19.4221L22.0297 16.8403C22.4203 16.4498 23.0534 16.4498 23.4439 16.8403L27.2929 20.6893C27.6834 21.0798 27.6834 21.713 27.2929 22.1035L25.1007 24.2957C22.9893 26.4071 19.6468 26.6446 17.258 24.8531L13.5233 22.052C11.7798 20.7444 10.231 19.1956 8.92331 17.452L6.12226 13.7173C4.33072 11.3286 4.56827 7.98602 6.67962 5.87467Z" fill="white"/>
</svg>
