<svg width="20" height="19" viewBox="0 0 20 19" fill="none" xmlns="http://www.w3.org/2000/svg">
<path d="M10.9277 2.375H7.62516C6.13238 2.375 5.38599 2.375 4.92224 2.83875C4.4585 3.3025 4.4585 4.04889 4.4585 5.54167V13.4583C4.4585 14.9511 4.4585 15.6975 4.92224 16.1613C5.38599 16.625 6.13238 16.625 7.62516 16.625H12.3752C13.8679 16.625 14.6143 16.625 15.0781 16.1613C15.5418 15.6975 15.5418 14.9511 15.5418 13.4583V6.98917C15.5418 6.66558 15.5418 6.50378 15.4816 6.35829C15.4213 6.21281 15.3069 6.0984 15.0781 5.86959L12.0472 2.83875C11.8184 2.60993 11.704 2.49552 11.5585 2.43526C11.4131 2.375 11.2513 2.375 10.9277 2.375Z" stroke="#31587C" stroke-width="2"/>
<path d="M7.625 10.2917L12.375 10.2917" stroke="#31587C" stroke-width="2" stroke-linecap="round"/>
<path d="M7.625 13.4583L10.7917 13.4583" stroke="#31587C" stroke-width="2" stroke-linecap="round"/>
<path d="M10.7915 2.375V5.54167C10.7915 6.28806 10.7915 6.66125 11.0234 6.89313C11.2553 7.125 11.6284 7.125 12.3748 7.125H15.5415" stroke="#31587C" stroke-width="2"/>
</svg>
