<svg width="20" height="21" viewBox="0 0 20 21" fill="none" xmlns="http://www.w3.org/2000/svg">
<path d="M11.6666 13L8.33325 16.3333L11.6666 19.6667" stroke="#31587C" stroke-width="2"/>
<path d="M15.0517 7.58341C15.5637 8.47019 15.8333 9.47612 15.8333 10.5001C15.8333 11.524 15.5637 12.53 15.0517 13.4167C14.5398 14.3035 13.8034 15.0399 12.9166 15.5519C12.0298 16.0639 11.0239 16.3334 9.99992 16.3334" stroke="#31587C" stroke-width="2" stroke-linecap="round"/>
<path d="M8.33341 8L11.6667 4.66667L8.33341 1.33333" stroke="#31587C" stroke-width="2"/>
<path d="M4.94827 13.4166C4.43628 12.5298 4.16675 11.5239 4.16675 10.4999C4.16675 9.47595 4.43628 8.47003 4.94827 7.58325C5.46025 6.69647 6.19664 5.96009 7.08341 5.4481C7.97019 4.93612 8.97612 4.66659 10.0001 4.66659" stroke="#31587C" stroke-width="2" stroke-linecap="round"/>
</svg>
