<svg width="30" height="30" viewBox="0 0 30 30" fill="none" xmlns="http://www.w3.org/2000/svg">
<path d="M17.6702 4.2018L18.4165 4.12717L18.4165 4.12717L17.6702 4.2018ZM17.3238 2.81529L17.8704 2.30176L17.8704 2.30176L17.3238 2.81529ZM18.3408 6.62487L18.7079 5.97086L18.7079 5.97086L18.3408 6.62487ZM18.5598 6.71559L18.3569 7.43763L18.3569 7.43763L18.5598 6.71559ZM20.7473 5.47641L20.2724 4.89594L20.2724 4.89595L20.7473 5.47641ZM21.9726 4.74092L21.996 5.49056L21.996 5.49056L21.9726 4.74092ZM22.1343 4.74899L22.2322 4.0054L22.2322 4.0054L22.1343 4.74899ZM23.2804 5.60275L23.8107 5.07242L23.8107 5.07242L23.2804 5.60275ZM24.3972 6.71958L23.8669 7.24991L23.8669 7.24991L24.3972 6.71958ZM25.251 7.86564L24.5074 7.9635L24.5074 7.96351L25.251 7.86564ZM25.259 8.02731L26.0087 8.0507L26.0087 8.05068L25.259 8.02731ZM24.5235 9.25263L23.9431 8.7777L24.5235 9.25263ZM23.2843 11.4402L22.5623 11.6431L22.5623 11.6431L23.2843 11.4402ZM23.3751 11.6592L24.0291 11.2921L24.0291 11.2921L23.3751 11.6592ZM25.7982 12.3298L25.7235 13.0761L25.7235 13.0761L25.7982 12.3298ZM27.1847 12.6762L26.6712 13.2228L26.6712 13.2228L27.1847 12.6762ZM27.2933 12.7962L26.6983 13.2528L26.6983 13.2528L27.2933 12.7962ZM27.2934 17.2037L27.8884 17.6602L27.8884 17.6602L27.2934 17.2037ZM27.1846 17.3239L26.6712 16.7772L26.6712 16.7772L27.1846 17.3239ZM25.7983 17.6702L25.7237 16.9239L25.7237 16.9239L25.7983 17.6702ZM23.3756 18.3405L22.7217 17.9733L22.7217 17.9733L23.3756 18.3405ZM23.2847 18.56L22.5627 18.3573L22.5627 18.3573L23.2847 18.56ZM24.5237 20.747L23.9433 21.2219L23.9433 21.2219L24.5237 20.747ZM25.2591 21.972L26.0087 21.9485L26.0087 21.9484L25.2591 21.972ZM25.251 22.134L25.9946 22.232L25.9946 22.232L25.251 22.134ZM22.1344 25.2505L22.2323 25.994L22.2323 25.994L22.1344 25.2505ZM21.9727 25.2585L21.9961 24.5089L21.9961 24.5089L21.9727 25.2585ZM20.7474 24.523L20.2725 25.1035L20.2725 25.1035L20.7474 24.523ZM18.5599 23.2839L18.7627 24.0059L18.7627 24.0059L18.5599 23.2839ZM18.3408 23.3746L18.708 24.0286L18.708 24.0286L18.3408 23.3746ZM17.6702 25.7979L16.9239 25.7233L16.9239 25.7233L17.6702 25.7979ZM17.3237 27.1848L16.7772 26.6712L16.7772 26.6712L17.3237 27.1848ZM17.2039 27.2932L16.7472 26.6983L16.7472 26.6983L17.2039 27.2932ZM12.7962 27.2933L13.2528 26.6983L13.2528 26.6983L12.7962 27.2933ZM12.6762 27.1847L13.2228 26.6712L13.2228 26.6712L12.6762 27.1847ZM12.3298 25.7982L11.5835 25.8728L11.5835 25.8728L12.3298 25.7982ZM11.6592 23.3751L12.0263 22.721L12.0263 22.721L11.6592 23.3751ZM11.4402 23.2844L11.6431 22.5623L11.6431 22.5623L11.4402 23.2844ZM9.25259 24.5236L9.72752 25.104L9.72752 25.104L9.25259 24.5236ZM8.02723 25.2591L8.00386 24.5095L8.00386 24.5095L8.02723 25.2591ZM7.8656 25.251L7.76775 25.9946L7.76775 25.9946L7.8656 25.251ZM5.60271 23.2804L5.07238 23.8108L5.07238 23.8108L5.60271 23.2804ZM4.74893 22.1344L4.00534 22.2322L4.00534 22.2322L4.74893 22.1344ZM4.74086 21.9727L3.99123 21.9493L3.99123 21.9493L4.74086 21.9727ZM5.47638 20.7474L4.89591 20.2724L4.89591 20.2724L5.47638 20.7474ZM6.71558 18.5598L5.99353 18.7626L5.99353 18.7627L6.71558 18.5598ZM6.62486 18.3408L5.97085 18.7079L5.97086 18.7079L6.62486 18.3408ZM4.20179 17.6702L4.27642 16.9239L4.27642 16.9239L4.20179 17.6702ZM2.81529 17.3238L3.32882 16.7772L3.32882 16.7772L2.81529 17.3238ZM2.70667 17.2038L2.11167 17.6604L2.11167 17.6604L2.70667 17.2038ZM2.70674 12.7961L3.30169 13.2528L3.30169 13.2528L2.70674 12.7961ZM2.8152 12.6763L3.3288 13.2228L3.3288 13.2228L2.8152 12.6763ZM4.20194 12.3298L4.12732 11.5835L4.12732 11.5835L4.20194 12.3298ZM6.62542 11.659L7.2795 12.026L7.2795 12.026L6.62542 11.659ZM6.716 11.4403L5.99399 11.2373L5.99399 11.2373L6.716 11.4403ZM5.4766 9.25227L6.05706 8.77734L6.05706 8.77734L5.4766 9.25227ZM4.74092 8.02656L5.49056 8.00331L5.49056 8.00331L4.74092 8.02656ZM4.74896 7.86525L5.49257 7.96298L5.49257 7.96298L4.74896 7.86525ZM5.60292 6.71886L5.07259 6.18853L5.07259 6.18853L5.60292 6.71886ZM6.71957 5.60221L7.2499 6.13254L7.2499 6.13254L6.71957 5.60221ZM7.86565 4.74842L7.7678 4.00483L7.7678 4.00483L7.86565 4.74842ZM8.02729 4.74035L8.05067 3.99072L8.05066 3.99072L8.02729 4.74035ZM9.25275 5.47595L9.72767 4.89548L9.72767 4.89548L9.25275 5.47595ZM11.4401 6.71515L11.6428 7.43723L11.6428 7.43723L11.4401 6.71515ZM11.6594 6.62429L12.0267 7.27823L12.0267 7.27823L11.6594 6.62429ZM12.3298 4.20163L13.0761 4.27626L13.0798 4.23904V4.20163H12.3298ZM12.3298 4.20162L11.5836 4.12699L11.5798 4.16421V4.20162H12.3298ZM12.6761 2.81539L12.1294 2.30193L12.1294 2.30193L12.6761 2.81539ZM12.7963 2.70659L13.2528 3.30165L13.2528 3.30165L12.7963 2.70659ZM17.2038 2.70667L16.7472 3.30167L16.7472 3.30167L17.2038 2.70667ZM18.4165 4.12717C18.3802 3.76508 18.3479 3.4298 18.2885 3.15709C18.2255 2.8675 18.116 2.56319 17.8704 2.30176L16.7772 3.32882C16.7641 3.31481 16.7898 3.32405 16.8228 3.47602C16.8596 3.64486 16.8842 3.87912 16.9239 4.27643L18.4165 4.12717ZM18.7079 5.97086C18.7638 6.00222 18.6989 6.02385 18.6195 5.68753C18.5408 5.35448 18.491 4.87234 18.4165 4.12717L16.9239 4.27643C16.9939 4.97682 17.0525 5.57886 17.1596 6.03227C17.2659 6.48241 17.464 6.99279 17.9737 7.27887L18.7079 5.97086ZM18.7627 5.99354C18.7436 5.98818 18.7252 5.98057 18.7079 5.97086L17.9737 7.27887C18.0947 7.3468 18.2233 7.4001 18.3569 7.43763L18.7627 5.99354ZM20.2724 4.89595C19.6928 5.37017 19.3167 5.67585 19.0255 5.85574C18.7316 6.0374 18.701 5.97621 18.7627 5.99354L18.3569 7.43763C18.9196 7.59571 19.4206 7.37491 19.814 7.13178C20.2104 6.88688 20.6775 6.50261 21.2223 6.05688L20.2724 4.89595ZM21.9492 3.99129C21.5907 4.00248 21.2981 4.14024 21.0488 4.30045C20.814 4.45133 20.554 4.66552 20.2724 4.89594L21.2223 6.05688C21.5313 5.80404 21.7143 5.65578 21.8597 5.56238C21.9905 5.47831 22.0152 5.48996 21.996 5.49056L21.9492 3.99129ZM22.2322 4.0054C22.1384 3.99306 22.0438 3.98834 21.9492 3.99129L21.996 5.49056C22.0095 5.49013 22.0231 5.49081 22.0365 5.49257L22.2322 4.0054ZM23.8107 5.07242C23.5534 4.81511 23.316 4.57612 23.0974 4.40263C22.8653 4.2184 22.5878 4.05221 22.2322 4.0054L22.0365 5.49257C22.0174 5.49006 22.0432 5.48093 22.165 5.5776C22.3003 5.68501 22.4677 5.85074 22.75 6.13308L23.8107 5.07242ZM24.9275 6.18925L23.8107 5.07242L22.75 6.13308L23.8669 7.24991L24.9275 6.18925ZM25.9946 7.76777C25.9478 7.41214 25.7816 7.1347 25.5973 6.90255C25.4238 6.68393 25.1848 6.44657 24.9275 6.18925L23.8669 7.24991C24.1492 7.53225 24.3149 7.69963 24.4224 7.83498C24.519 7.9568 24.5099 7.98256 24.5074 7.9635L25.9946 7.76777ZM26.0087 8.05068C26.0116 7.95617 26.0069 7.86155 25.9946 7.76776L24.5074 7.96351C24.5091 7.97689 24.5098 7.99041 24.5094 8.00394L26.0087 8.05068ZM25.104 9.72756C25.3344 9.44592 25.5486 9.18595 25.6995 8.95115C25.8597 8.70183 25.9975 8.40922 26.0087 8.0507L24.5094 8.00392C24.51 7.98471 24.5217 8.00943 24.4376 8.14026C24.3442 8.28563 24.1959 8.46867 23.9431 8.7777L25.104 9.72756ZM24.0064 11.2373C24.0237 11.299 23.9625 11.2684 24.1442 10.9745C24.3241 10.6833 24.6298 10.3072 25.104 9.72756L23.9431 8.7777C23.4973 9.32249 23.113 9.78963 22.8681 10.186C22.625 10.5794 22.4042 11.0804 22.5623 11.6431L24.0064 11.2373ZM24.0291 11.2921C24.0194 11.2748 24.0117 11.2564 24.0064 11.2373L22.5623 11.6431C22.5998 11.7767 22.6531 11.9053 22.721 12.0263L24.0291 11.2921ZM25.8728 11.5835C25.1276 11.509 24.6455 11.4592 24.3124 11.3805C23.9761 11.3011 23.9977 11.2362 24.0291 11.2921L22.721 12.0263C23.0071 12.536 23.5175 12.7341 23.9677 12.8404C24.4211 12.9475 25.0231 13.0061 25.7235 13.0761L25.8728 11.5835ZM27.6983 12.1296C27.4368 11.884 27.1325 11.7745 26.8429 11.7115C26.5702 11.6521 26.2349 11.6197 25.8728 11.5835L25.7235 13.0761C26.1209 13.1158 26.3551 13.1404 26.524 13.1772C26.6759 13.2102 26.6852 13.2359 26.6712 13.2228L27.6983 12.1296ZM27.8883 12.3396C27.8307 12.2646 27.7672 12.1943 27.6983 12.1296L26.6712 13.2228C26.681 13.232 26.6901 13.2421 26.6983 13.2528L27.8883 12.3396ZM28.25 14.2103C28.25 13.8464 28.2512 13.5096 28.2192 13.2323C28.1854 12.9379 28.1067 12.6241 27.8883 12.3396L26.6983 13.2528C26.6866 13.2375 26.7113 13.2493 26.7291 13.4038C26.7488 13.5755 26.75 13.811 26.75 14.2103H28.25ZM28.25 15.7899V14.2103H26.75V15.7899H28.25ZM27.8884 17.6602C28.1067 17.3757 28.1854 17.0621 28.2193 16.7677C28.2512 16.4905 28.25 16.1537 28.25 15.7899H26.75C26.75 16.1891 26.7488 16.4246 26.7291 16.5962C26.7113 16.7507 26.6866 16.7624 26.6983 16.7472L27.8884 17.6602ZM27.6981 17.8706C27.7671 17.8057 27.8308 17.7354 27.8884 17.6602L26.6984 16.7472C26.6901 16.7579 26.681 16.768 26.6712 16.7772L27.6981 17.8706ZM25.8729 18.4164C26.235 18.3802 26.5702 18.3479 26.8429 18.2886C27.1324 18.2256 27.4367 18.1161 27.6981 17.8706L26.6712 16.7772C26.6852 16.7641 26.6759 16.7898 26.524 16.8228C26.3552 16.8596 26.1209 16.8842 25.7237 16.9239L25.8729 18.4164ZM24.0296 18.7078C23.9982 18.7637 23.9766 18.6988 24.3129 18.6194C24.6459 18.5408 25.1279 18.491 25.8729 18.4164L25.7237 16.9239C25.0234 16.9939 24.4215 17.0525 23.9682 17.1595C23.5181 17.2658 23.0079 17.4638 22.7217 17.9733L24.0296 18.7078ZM24.0068 18.7627C24.0122 18.7435 24.0198 18.7251 24.0296 18.7078L22.7217 17.9733C22.6536 18.0945 22.6002 18.2234 22.5627 18.3573L24.0068 18.7627ZM25.1042 20.2721C24.6301 19.6926 24.3245 19.3165 24.1446 19.0255C23.963 18.7316 24.0241 18.701 24.0068 18.7627L22.5627 18.3573C22.4048 18.9198 22.6255 19.4207 22.8686 19.814C23.1135 20.2103 23.4976 20.6773 23.9433 21.2219L25.1042 20.2721ZM26.0087 21.9484C25.9975 21.59 25.8597 21.2975 25.6995 21.0482C25.5487 20.8135 25.3346 20.5536 25.1042 20.2721L23.9433 21.2219C24.196 21.5309 24.3443 21.7139 24.4376 21.8592C24.5217 21.99 24.5101 22.0147 24.5095 21.9955L26.0087 21.9484ZM25.9946 22.232C26.007 22.138 26.0117 22.0432 26.0087 21.9485L24.5095 21.9955C24.5099 22.009 24.5092 22.0226 24.5074 22.036L25.9946 22.232ZM24.9277 23.81C25.185 23.5528 25.4239 23.3155 25.5974 23.0969C25.7815 22.8649 25.9477 22.5875 25.9946 22.232L24.5074 22.036C24.5099 22.0169 24.5191 22.0427 24.4224 22.1645C24.315 22.2998 24.1493 22.4671 23.8671 22.7494L24.9277 23.81ZM23.8107 24.927L24.9277 23.81L23.8671 22.7494L22.7501 23.8664L23.8107 24.927ZM22.2323 25.994C22.5879 25.9472 22.8653 25.781 23.0975 25.5968C23.3161 25.4233 23.5534 25.1843 23.8107 24.927L22.7501 23.8664C22.4678 24.1487 22.3004 24.3144 22.165 24.4218C22.0432 24.5185 22.0175 24.5094 22.0365 24.5069L22.2323 25.994ZM21.9493 26.0082C22.0439 26.0111 22.1385 26.0064 22.2323 25.994L22.0365 24.5069C22.0231 24.5086 22.0096 24.5093 21.9961 24.5089L21.9493 26.0082ZM20.2725 25.1035C20.5541 25.3339 20.8141 25.5481 21.0489 25.699C21.2982 25.8592 21.5908 25.997 21.9493 26.0082L21.9961 24.5089C22.0153 24.5095 21.9906 24.5211 21.8597 24.4371C21.7144 24.3437 21.5314 24.1954 21.2223 23.9426L20.2725 25.1035ZM18.7627 24.0059C18.701 24.0232 18.7316 23.962 19.0256 24.1437C19.3167 24.3236 19.6929 24.6293 20.2725 25.1035L21.2223 23.9426C20.6775 23.4968 20.2104 23.1126 19.8141 22.8677C19.4206 22.6245 18.9196 22.4037 18.357 22.5618L18.7627 24.0059ZM18.708 24.0286C18.7252 24.0189 18.7436 24.0113 18.7627 24.0059L18.357 22.5618C18.2234 22.5993 18.0947 22.6526 17.9737 22.7206L18.708 24.0286ZM18.4165 25.8725C18.491 25.1273 18.5408 24.6451 18.6195 24.312C18.6989 23.9756 18.7638 23.9972 18.708 24.0286L17.9737 22.7206C17.4641 23.0067 17.2659 23.5171 17.1596 23.9672C17.0526 24.4207 16.994 25.0228 16.9239 25.7233L18.4165 25.8725ZM17.8703 27.6984C18.116 27.437 18.2255 27.1326 18.2885 26.8429C18.3479 26.5701 18.3803 26.2347 18.4165 25.8725L16.9239 25.7233C16.8842 26.1207 16.8596 26.3551 16.8228 26.524C16.7898 26.676 16.764 26.6852 16.7772 26.6712L17.8703 27.6984ZM17.6606 27.8882C17.7355 27.8307 17.8056 27.7672 17.8703 27.6984L16.7772 26.6712C16.768 26.681 16.7579 26.6901 16.7472 26.6983L17.6606 27.8882ZM15.7895 28.25C16.1535 28.25 16.4904 28.2512 16.7678 28.2192C17.0622 28.1853 17.376 28.1066 17.6606 27.8882L16.7472 26.6983C16.7625 26.6866 16.7507 26.7113 16.5962 26.7291C16.4245 26.7488 16.1889 26.75 15.7895 26.75V28.25ZM14.2103 28.25H15.7895V26.75H14.2103V28.25ZM12.3396 27.8883C12.6242 28.1067 12.9379 28.1854 13.2323 28.2192C13.5096 28.2512 13.8464 28.25 14.2103 28.25V26.75C13.811 26.75 13.5755 26.7488 13.4038 26.7291C13.2493 26.7113 13.2375 26.6866 13.2528 26.6983L12.3396 27.8883ZM12.1296 27.6983C12.1943 27.7672 12.2646 27.8307 12.3396 27.8883L13.2528 26.6983C13.2421 26.6901 13.232 26.681 13.2228 26.6712L12.1296 27.6983ZM11.5835 25.8728C11.6198 26.2349 11.6521 26.5702 11.7115 26.8429C11.7745 27.1325 11.884 27.4368 12.1296 27.6983L13.2228 26.6712C13.2359 26.6852 13.2102 26.6759 13.1772 26.524C13.1404 26.3551 13.1158 26.1209 13.0761 25.7236L11.5835 25.8728ZM11.2921 24.0291C11.2362 23.9977 11.3011 23.9761 11.3805 24.3124C11.4592 24.6455 11.509 25.1276 11.5835 25.8728L13.0761 25.7236C13.0061 25.0231 12.9475 24.4211 12.8404 23.9677C12.7341 23.5175 12.5359 23.0071 12.0263 22.721L11.2921 24.0291ZM11.2373 24.0064C11.2564 24.0118 11.2748 24.0194 11.2921 24.0291L12.0263 22.721C11.9053 22.6531 11.7767 22.5999 11.6431 22.5623L11.2373 24.0064ZM9.72752 25.104C10.3072 24.6298 10.6833 24.3241 10.9745 24.1442C11.2684 23.9625 11.299 24.0237 11.2373 24.0064L11.6431 22.5623C11.0804 22.4042 10.5794 22.625 10.186 22.8682C9.78962 23.1131 9.32247 23.4974 8.77767 23.9431L9.72752 25.104ZM8.05061 26.0087C8.40914 25.9975 8.70176 25.8598 8.95109 25.6996C9.1859 25.5487 9.44587 25.3345 9.72752 25.104L8.77767 23.9431C8.46862 24.196 8.28558 24.3442 8.14021 24.4376C8.00937 24.5217 7.98464 24.5101 8.00386 24.5095L8.05061 26.0087ZM7.76775 25.9946C7.86149 26.007 7.95609 26.0117 8.05061 26.0087L8.00386 24.5095C7.99036 24.5099 7.97685 24.5092 7.96345 24.5074L7.76775 25.9946ZM6.18918 24.9276C6.4465 25.1849 6.68387 25.4239 6.9025 25.5974C7.13465 25.7816 7.41211 25.9478 7.76775 25.9946L7.96345 24.5074C7.98251 24.5099 7.95675 24.5191 7.83492 24.4224C7.69957 24.315 7.53219 24.1493 7.24984 23.8669L6.18918 24.9276ZM5.07238 23.8108L6.18918 24.9276L7.24984 23.8669L6.13304 22.7501L5.07238 23.8108ZM4.00534 22.2322C4.05214 22.5879 4.21834 22.8653 4.40257 23.0975C4.57606 23.3161 4.81506 23.5534 5.07238 23.8108L6.13304 22.7501C5.8507 22.4678 5.68496 22.3004 5.57755 22.165C5.48087 22.0432 5.49001 22.0175 5.49251 22.0365L4.00534 22.2322ZM3.99123 21.9493C3.98828 22.0439 3.993 22.1385 4.00534 22.2322L5.49251 22.0365C5.49075 22.0231 5.49008 22.0096 5.4905 21.9961L3.99123 21.9493ZM4.89591 20.2724C4.66547 20.5541 4.45127 20.8141 4.30039 21.0489C4.14018 21.2982 4.00241 21.5908 3.99123 21.9493L5.4905 21.9961C5.4899 22.0153 5.47825 21.9906 5.56232 21.8597C5.65573 21.7144 5.804 21.5313 6.05685 21.2223L4.89591 20.2724ZM5.99353 18.7627C5.9762 18.701 6.03739 18.7316 5.85573 19.0255C5.67584 19.3167 5.37014 19.6928 4.89591 20.2724L6.05685 21.2223C6.50258 20.6775 6.88686 20.2104 7.13176 19.814C7.3749 19.4206 7.5957 18.9196 7.43762 18.3569L5.99353 18.7627ZM5.97086 18.7079C5.98056 18.7252 5.98817 18.7436 5.99353 18.7626L7.43762 18.3569C7.40009 18.2233 7.34679 18.0947 7.27887 17.9737L5.97086 18.7079ZM4.12716 18.4165C4.87233 18.491 5.35447 18.5408 5.68753 18.6194C6.02384 18.6989 6.00221 18.7638 5.97085 18.7079L7.27887 17.9737C6.99279 17.464 6.48241 17.2659 6.03226 17.1596C5.57886 17.0525 4.97682 16.9939 4.27642 16.9239L4.12716 18.4165ZM2.30177 17.8704C2.56319 18.116 2.8675 18.2255 3.15709 18.2885C3.4298 18.3479 3.76508 18.3802 4.12716 18.4165L4.27642 16.9239C3.87911 16.8842 3.64485 16.8596 3.47602 16.8228C3.32406 16.7898 3.31481 16.7641 3.32882 16.7772L2.30177 17.8704ZM2.11167 17.6604C2.16925 17.7354 2.23282 17.8057 2.30177 17.8704L3.32882 16.7772C3.31898 16.768 3.30989 16.7579 3.30167 16.7472L2.11167 17.6604ZM1.75 15.7897C1.75 16.1536 1.74884 16.4904 1.78075 16.7677C1.81464 17.0621 1.8933 17.3758 2.11167 17.6604L3.30167 16.7472C3.31337 16.7625 3.2887 16.7507 3.27091 16.5962C3.25116 16.4246 3.25 16.189 3.25 15.7897H1.75ZM1.75 14.2104V15.7897H3.25V14.2104H1.75ZM2.1118 12.3394C1.89335 12.624 1.81466 12.9378 1.78076 13.2323C1.74884 13.5096 1.75 13.8465 1.75 14.2104H3.25C3.25 13.8111 3.25116 13.5755 3.27092 13.4038C3.28871 13.2493 3.31339 13.2375 3.30169 13.2528L2.1118 12.3394ZM2.30161 12.1297C2.23278 12.1944 2.16931 12.2645 2.1118 12.3394L3.30169 13.2528C3.3099 13.2421 3.31897 13.232 3.3288 13.2228L2.30161 12.1297ZM4.12732 11.5835C3.76516 11.6197 3.42982 11.6521 3.15705 11.7115C2.86741 11.7745 2.56305 11.884 2.30161 12.1297L3.3288 13.2228C3.31479 13.236 3.32403 13.2102 3.47602 13.1772C3.64488 13.1404 3.87919 13.1158 4.27657 13.0761L4.12732 11.5835ZM5.97135 11.292C6.0027 11.2361 6.02435 11.301 5.68799 11.3805C5.35487 11.4592 4.87264 11.509 4.12732 11.5835L4.27657 13.0761C4.97711 13.006 5.57927 12.9474 6.03276 12.8403C6.48299 12.734 6.99345 12.5358 7.2795 12.026L5.97135 11.292ZM5.99399 11.2373C5.98863 11.2564 5.98103 11.2747 5.97135 11.292L7.2795 12.026C7.34729 11.9052 7.4005 11.7767 7.438 11.6433L5.99399 11.2373ZM4.89613 9.7272C5.37047 10.307 5.67624 10.6832 5.85617 10.9744C6.03786 11.2684 5.97665 11.299 5.99399 11.2373L7.438 11.6433C7.59622 11.0806 7.3754 10.5795 7.13222 10.1859C6.88728 9.78951 6.50291 9.32226 6.05706 8.77734L4.89613 9.7272ZM3.99128 8.04982C4.0024 8.40845 4.14019 8.70115 4.30044 8.95055C4.45136 9.18542 4.66562 9.44547 4.89613 9.7272L6.05706 8.77734C5.80414 8.46821 5.65582 8.28511 5.56239 8.1397C5.47829 8.00881 5.48996 7.98409 5.49056 8.00331L3.99128 8.04982ZM4.00536 7.76752C3.99306 7.86108 3.98835 7.95549 3.99128 8.04982L5.49056 8.00331C5.49014 7.98983 5.49081 7.97635 5.49257 7.96298L4.00536 7.76752ZM5.07259 6.18853C4.8152 6.44591 4.57614 6.68334 4.4026 6.90203C4.21833 7.13425 4.05211 7.41178 4.00536 7.76752L5.49257 7.96298C5.49006 7.98204 5.48092 7.95628 5.57761 7.83442C5.68504 7.69904 5.85083 7.53161 6.13325 7.24919L5.07259 6.18853ZM6.18924 5.07188L5.07259 6.18853L6.13325 7.24919L7.2499 6.13254L6.18924 5.07188ZM7.7678 4.00483C7.41216 4.05163 7.13471 4.21783 6.90255 4.40206C6.68392 4.57555 6.44656 4.81456 6.18924 5.07188L7.2499 6.13254C7.53225 5.85019 7.69963 5.68445 7.83498 5.57704C7.9568 5.48036 7.98256 5.4895 7.96351 5.49201L7.7678 4.00483ZM8.05066 3.99072C7.95615 3.98777 7.86156 3.99249 7.7678 4.00483L7.96351 5.49201C7.9769 5.49024 7.99041 5.48957 8.00392 5.48999L8.05066 3.99072ZM9.72767 4.89548C9.44599 4.66502 9.186 4.4508 8.95118 4.29991C8.70184 4.13968 8.40921 4.0019 8.05067 3.99072L8.00391 5.48999C7.98469 5.48939 8.00941 5.47773 8.14028 5.56183C8.28567 5.65525 8.46874 5.80354 8.77782 6.05642L9.72767 4.89548ZM11.2374 5.99307C11.2991 5.97574 11.2684 6.03691 10.9745 5.85524C10.6834 5.67534 10.3072 5.36967 9.72767 4.89548L8.77782 6.05642C9.32256 6.50212 9.78965 6.88635 10.1859 7.13124C10.5793 7.37435 11.0802 7.59518 11.6428 7.43723L11.2374 5.99307ZM11.2922 5.97035C11.2749 5.98007 11.2565 5.9877 11.2374 5.99307L11.6428 7.43723C11.7766 7.39966 11.9055 7.34628 12.0267 7.27823L11.2922 5.97035ZM11.5836 4.127C11.5091 4.87202 11.4592 5.35406 11.3806 5.68706C11.3012 6.02332 11.2363 6.00172 11.2922 5.97035L12.0267 7.27823C12.5361 6.99211 12.7342 6.48182 12.8405 6.03176C12.9475 5.57843 13.0061 4.97652 13.0761 4.27626L11.5836 4.127ZM11.5798 4.20162V4.20163H13.0798V4.20162H11.5798ZM12.1294 2.30193C11.8839 2.56333 11.7744 2.86759 11.7114 3.15712C11.6521 3.42978 11.6198 3.76499 11.5836 4.12699L13.0761 4.27625C13.1158 3.87903 13.1404 3.64482 13.1772 3.47602C13.2102 3.32408 13.2359 3.31484 13.2228 3.32885L12.1294 2.30193ZM12.3398 2.11153C12.2646 2.1692 12.1943 2.23287 12.1294 2.30193L13.2228 3.32885C13.232 3.31898 13.2421 3.30988 13.2528 3.30165L12.3398 2.11153ZM14.2101 1.75C13.8463 1.75 13.5095 1.74884 13.2323 1.78074C12.938 1.81461 12.6243 1.89324 12.3398 2.11153L13.2528 3.30165C13.2376 3.31335 13.2493 3.28868 13.4038 3.27091C13.5754 3.25116 13.8109 3.25 14.2101 3.25V1.75ZM15.7897 1.75H14.2101V3.25H15.7897V1.75ZM17.6604 2.11167C17.3758 1.8933 17.0621 1.81464 16.7677 1.78075C16.4904 1.74884 16.1536 1.75 15.7897 1.75V3.25C16.189 3.25 16.4246 3.25116 16.5962 3.27091C16.7507 3.2887 16.7625 3.31337 16.7472 3.30167L17.6604 2.11167ZM17.8704 2.30176C17.8057 2.23283 17.7354 2.16925 17.6604 2.11167L16.7472 3.30167C16.7579 3.30989 16.768 3.31897 16.7772 3.32883L17.8704 2.30176ZM19.25 15C19.25 17.3472 17.3472 19.25 15 19.25V20.75C18.1756 20.75 20.75 18.1756 20.75 15H19.25ZM15 10.75C17.3472 10.75 19.25 12.6528 19.25 15H20.75C20.75 11.8244 18.1756 9.25 15 9.25V10.75ZM10.75 15C10.75 12.6528 12.6528 10.75 15 10.75V9.25C11.8244 9.25 9.25 11.8244 9.25 15H10.75ZM15 19.25C12.6528 19.25 10.75 17.3472 10.75 15H9.25C9.25 18.1756 11.8244 20.75 15 20.75V19.25Z" fill="#6AA4D9"/>
</svg>
