<svg width="40" height="40" viewBox="0 0 40 40" fill="none" xmlns="http://www.w3.org/2000/svg">
<path d="M23.5136 5.13437H22.0136V5.20918L22.021 5.28362L23.5136 5.13437ZM23.5136 5.13435H25.0136V5.05953L25.0062 4.98509L23.5136 5.13435ZM23.6568 6.56658L22.1643 6.71584V6.71584L23.6568 6.56658ZM26.9134 7.91549L27.8632 9.07643V9.07643L26.9134 7.91549ZM28.0274 7.00406L27.0775 5.84312V5.84312L28.0274 7.00406ZM30.708 7.13776L31.7687 6.0771L31.7687 6.0771L30.708 7.13776ZM32.8624 9.29211L31.8017 10.3528L31.8017 10.3528L32.8624 9.29211ZM33.794 10.5893L35.2921 10.5146L35.2921 10.5146L33.794 10.5893ZM32.9961 11.9728L34.157 12.9227V12.9227L32.9961 11.9728ZM32.0846 13.0868L30.9237 12.137V12.137L32.0846 13.0868ZM33.4335 16.3434L33.2843 17.8359L33.4335 16.3434ZM34.8658 16.4866L35.0151 14.9941L34.8658 16.4866ZM36.4083 16.9007L35.2961 17.9072L35.2961 17.9072L36.4083 16.9007ZM36.4083 23.0994L35.2961 22.0929L35.2961 22.0929L36.4083 23.0994ZM34.8659 23.5135V25.0135H34.9407L35.0151 25.006L34.8659 23.5135ZM34.8658 23.5135V22.0135H34.791L34.7166 22.0209L34.8658 23.5135ZM33.4342 23.6566L33.5834 25.1492L33.4342 23.6566ZM30.7549 24.4545L29.3691 23.8805L29.3691 23.8805L30.7549 24.4545ZM32.0853 26.9132L33.2462 25.9633V25.9633L32.0853 26.9132ZM32.9962 28.0265L34.1571 27.0767L32.9962 28.0265ZM32.8625 30.7072L33.9231 31.7679V31.7679L32.8625 30.7072ZM30.7081 32.8616L29.6475 31.8009V31.8009L30.7081 32.8616ZM29.4109 33.7932L29.4856 35.2913L29.4856 35.2913L29.4109 33.7932ZM28.0274 32.9953L27.0776 34.1562L27.0776 34.1562L28.0274 32.9953ZM26.9135 32.0838L25.9531 33.2362L25.9636 33.2448L26.9135 32.0838ZM26.9134 32.0838L27.8738 30.9315L27.8633 30.9229L26.9134 32.0838ZM24.4547 30.7535L25.0288 32.1393L25.0288 32.1393L24.4547 30.7535ZM23.6569 33.4328L22.1643 33.2835V33.2835L23.6569 33.4328ZM23.5136 34.8657L22.021 34.7165L22.0136 34.7909V34.8657H23.5136ZM23.5136 34.8657L25.0062 35.015L25.0136 34.9406V34.8657H23.5136ZM23.0995 36.4082L22.093 35.296L22.093 35.296L23.0995 36.4082ZM16.9008 36.4082L17.9073 35.296L17.9073 35.296L16.9008 36.4082ZM16.4867 34.8657L14.9942 35.015L16.4867 34.8657ZM16.3435 33.4334L17.8361 33.2842L16.3435 33.4334ZM13.087 32.0845L12.1371 30.9236L12.1371 30.9236L13.087 32.0845ZM11.9729 32.996L12.9227 34.157L12.9227 34.157L11.9729 32.996ZM9.29217 32.8623L8.23151 33.923L9.29217 32.8623ZM7.13781 30.708L8.19847 29.6473L7.13781 30.708ZM6.20624 29.4108L4.7081 29.4855L6.20624 29.4108ZM7.00411 28.0273L5.84318 27.0774L5.84317 27.0774L7.00411 28.0273ZM7.91561 26.9132L9.07655 27.8631L9.07655 27.8631L7.91561 26.9132ZM6.5667 23.6567L6.71596 22.1641H6.71596L6.5667 23.6567ZM5.13449 23.5135L5.28374 22.0209L5.2093 22.0135H5.13449V23.5135ZM5.13447 23.5135L4.98521 25.006L5.05965 25.0135H5.13447V23.5135ZM3.59204 23.0994L4.70422 22.0929L4.70422 22.0929L3.59204 23.0994ZM3.59204 16.9007L2.47987 15.8942L2.47986 15.8942L3.59204 16.9007ZM5.13449 16.4866L4.98523 14.9941H4.98523L5.13449 16.4866ZM6.56734 16.3433L6.41808 14.8508H6.41808L6.56734 16.3433ZM9.24662 15.5455L7.86081 14.9715L7.86081 14.9715L9.24662 15.5455ZM7.91624 13.0868L6.75531 14.0366H6.75531L7.91624 13.0868ZM7.00419 11.972L8.16513 11.0222L8.16513 11.0222L7.00419 11.972ZM9.29225 7.137L10.3529 8.19766V8.19766L9.29225 7.137ZM11.9729 7.0033L11.0231 8.16424L11.9729 7.0033ZM13.087 7.91483L14.0369 6.7539L13.087 7.91483ZM15.5457 9.24522L16.1198 10.631L16.1198 10.631L15.5457 9.24522ZM16.3436 6.56593L14.851 6.41667V6.41667L16.3436 6.56593ZM16.4867 5.13437L14.9942 4.98511V4.98511L16.4867 5.13437ZM16.9008 3.59192L15.8943 2.47974L15.8943 2.47974L16.9008 3.59192ZM23.0995 3.59192L22.093 4.7041L22.093 4.7041L23.0995 3.59192ZM25.0136 5.13437V5.13435H22.0136V5.13437H25.0136ZM25.1494 6.41733L25.0062 4.98511L22.021 5.28362L22.1643 6.71584L25.1494 6.41733ZM25.0287 7.86006C25.4277 8.02534 25.4402 8.36848 25.3644 8.06698C25.288 7.76335 25.2361 7.2848 25.1494 6.41733L22.1643 6.71584C22.2409 7.4819 22.3115 8.22851 22.455 8.7989C22.5991 9.37141 22.9288 10.2374 23.8806 10.6317L25.0287 7.86006ZM25.9635 6.75456C25.2888 7.30662 24.9137 7.60833 24.645 7.76901C24.3782 7.92857 24.6297 7.69477 25.0287 7.86006L23.8806 10.6317C24.8325 11.026 25.678 10.6468 26.1847 10.3438C26.6895 10.0419 27.2674 9.56395 27.8632 9.07643L25.9635 6.75456ZM27.0775 5.84312L25.9635 6.75456L27.8632 9.07643L28.9772 8.16499L27.0775 5.84312ZM29.4855 4.70805C28.8696 4.67733 28.3827 4.9014 28.0308 5.12083C27.7152 5.3176 27.3793 5.59616 27.0775 5.84312L28.9772 8.16499C29.1478 8.02542 29.2781 7.91893 29.3916 7.83063C29.5054 7.74203 29.5748 7.69351 29.6181 7.66648C29.6603 7.64016 29.6471 7.65387 29.5927 7.67168C29.5278 7.69292 29.4374 7.70938 29.3361 7.70432L29.4855 4.70805ZM31.7687 6.0771C31.4929 5.80133 31.1865 5.49074 30.892 5.26354C30.5637 5.01018 30.1015 4.73877 29.4855 4.70805L29.3361 7.70432C29.2348 7.69927 29.1465 7.6739 29.084 7.64631C29.0317 7.62317 29.0199 7.60822 29.0593 7.63861C29.0997 7.66982 29.1639 7.72499 29.2684 7.82448C29.3725 7.92363 29.4915 8.04256 29.6474 8.19842L31.7687 6.0771ZM33.9231 8.23145L31.7687 6.0771L29.6474 8.19842L31.8017 10.3528L33.9231 8.23145ZM35.2921 10.5146C35.2614 9.89868 34.99 9.43645 34.7366 9.10812C34.5094 8.81369 34.1988 8.50722 33.9231 8.23145L31.8017 10.3528C31.9576 10.5086 32.0765 10.6277 32.1757 10.7318C32.2752 10.8363 32.3303 10.9004 32.3615 10.9409C32.3919 10.9803 32.377 10.9685 32.3538 10.9161C32.3263 10.8537 32.3009 10.7654 32.2958 10.6641L35.2921 10.5146ZM34.157 12.9227C34.404 12.6208 34.6826 12.285 34.8793 11.9694C35.0988 11.6175 35.3228 11.1305 35.2921 10.5146L32.2958 10.664C32.2908 10.5627 32.3072 10.4723 32.3285 10.4074C32.3463 10.353 32.36 10.3398 32.3337 10.3821C32.3066 10.4254 32.2581 10.4948 32.1695 10.6086C32.0812 10.7221 31.9747 10.8524 31.8352 11.0229L34.157 12.9227ZM33.2456 14.0367L34.157 12.9227L31.8352 11.0229L30.9237 12.137L33.2456 14.0367ZM32.1401 14.9715C32.3053 15.3705 32.0715 15.622 32.2311 15.3552C32.3918 15.0865 32.6935 14.7114 33.2456 14.0367L30.9237 12.137C30.4362 12.7328 29.9582 13.3107 29.6563 13.8155C29.3534 14.3222 28.9741 15.1677 29.3684 16.1196L32.1401 14.9715ZM33.5828 14.8508C32.7153 14.7641 32.2368 14.7122 31.9331 14.6358C31.6316 14.56 31.9748 14.5725 32.1401 14.9715L29.3684 16.1196C29.7627 17.0714 30.6287 17.4011 31.2012 17.5452C31.7716 17.6887 32.5182 17.7593 33.2843 17.8359L33.5828 14.8508ZM35.0151 14.9941L33.5828 14.8508L33.2843 17.8359L34.7166 17.9792L35.0151 14.9941ZM37.5205 15.8942C37.1067 15.4369 36.6039 15.2511 36.1999 15.1574C35.8376 15.0734 35.4032 15.0329 35.0151 14.9941L34.7166 17.9792C34.9359 18.0011 35.1033 18.0179 35.246 18.0357C35.3892 18.0536 35.4725 18.0683 35.5223 18.0798C35.5707 18.0911 35.5517 18.0914 35.5006 18.0656C35.4397 18.0347 35.3642 17.9824 35.2961 17.9072L37.5205 15.8942ZM38.1668 18.4767C38.1668 18.0867 38.1698 17.6504 38.1222 17.2815C38.0692 16.8702 37.9343 16.3514 37.5205 15.8942L35.2961 17.9072C35.228 17.832 35.1835 17.7516 35.1589 17.6879C35.1382 17.6345 35.1405 17.6156 35.1468 17.665C35.1534 17.7157 35.1597 17.8001 35.1632 17.9443C35.1667 18.088 35.1668 18.2563 35.1668 18.4767H38.1668ZM38.1668 21.5234V18.4767H35.1668V21.5234H38.1668ZM37.5205 24.1059C37.9343 23.6487 38.0692 23.1299 38.1222 22.7186C38.1698 22.3497 38.1668 21.9134 38.1668 21.5234H35.1668C35.1668 21.7438 35.1667 21.9121 35.1632 22.0558C35.1597 22.2 35.1534 22.2844 35.1468 22.3351C35.1405 22.3845 35.1382 22.3655 35.1589 22.3122C35.1835 22.2485 35.228 22.1681 35.2961 22.0929L37.5205 24.1059ZM35.0151 25.006C35.4032 24.9672 35.8376 24.9267 36.1999 24.8427C36.6039 24.749 37.1067 24.5631 37.5205 24.1059L35.2961 22.0929C35.3642 22.0177 35.4397 21.9654 35.5006 21.9345C35.5517 21.9087 35.5707 21.909 35.5223 21.9202C35.4725 21.9318 35.3892 21.9465 35.246 21.9644C35.1034 21.9822 34.9359 21.999 34.7166 22.0209L35.0151 25.006ZM34.8658 25.0135H34.8659V22.0135H34.8658V25.0135ZM33.5834 25.1492L35.0151 25.006L34.7166 22.0209L33.2849 22.1641L33.5834 25.1492ZM32.1407 25.0285C31.9754 25.4275 31.6323 25.44 31.9338 25.3642C32.2374 25.2878 32.7159 25.2359 33.5834 25.1492L33.2849 22.1641C32.5188 22.2407 31.7722 22.3113 31.2019 22.4548C30.6293 22.5989 29.7633 22.9286 29.3691 23.8805L32.1407 25.0285ZM33.2462 25.9633C32.6941 25.2886 32.3924 24.9135 32.2317 24.6448C32.0722 24.378 32.306 24.6295 32.1407 25.0285L29.3691 23.8805C28.9748 24.8323 29.354 25.6778 29.657 26.1845C29.9588 26.6893 30.4368 27.2672 30.9243 27.8631L33.2462 25.9633ZM34.1571 27.0767L33.2462 25.9633L30.9243 27.8631L31.8352 28.9764L34.1571 27.0767ZM35.2922 29.4847C35.3229 28.8688 35.0988 28.3819 34.8794 28.03C34.6826 27.7144 34.4041 27.3785 34.1571 27.0767L31.8352 28.9764C31.9748 29.147 32.0813 29.2773 32.1696 29.3907C32.2582 29.5046 32.3067 29.5739 32.3337 29.6173C32.3601 29.6595 32.3464 29.6463 32.3286 29.5919C32.3073 29.527 32.2909 29.4366 32.2959 29.3353L35.2922 29.4847ZM33.9231 31.7679C34.1989 31.4921 34.5095 31.1856 34.7367 30.8912C34.9901 30.5629 35.2615 30.1007 35.2922 29.4847L32.2959 29.3353C32.301 29.234 32.3263 29.1457 32.3539 29.0832C32.3771 29.0309 32.392 29.0191 32.3616 29.0585C32.3304 29.0989 32.2752 29.1631 32.1758 29.2676C32.0766 29.3717 31.9577 29.4907 31.8018 29.6466L33.9231 31.7679ZM31.7688 33.9222L33.9231 31.7679L31.8018 29.6466L29.6475 31.8009L31.7688 33.9222ZM31.7688 33.9223L31.7688 33.9222L29.6475 31.8009L29.6474 31.8009L31.7688 33.9223ZM29.4856 35.2913C30.1016 35.2606 30.5638 34.9892 30.8921 34.7358C31.1865 34.5086 31.493 34.198 31.7688 33.9223L29.6474 31.8009C29.4916 31.9568 29.3725 32.0757 29.2684 32.1749C29.164 32.2744 29.0998 32.3295 29.0593 32.3607C29.02 32.3911 29.0317 32.3762 29.0841 32.353C29.1465 32.3254 29.2349 32.3001 29.3362 32.295L29.4856 35.2913ZM27.0776 34.1562C27.3794 34.4032 27.7153 34.6817 28.0308 34.8785C28.3828 35.0979 28.8697 35.322 29.4856 35.2913L29.3362 32.295C29.4375 32.29 29.5279 32.3064 29.5928 32.3277C29.6472 32.3455 29.6604 32.3592 29.6182 32.3329C29.5748 32.3058 29.5055 32.2573 29.3916 32.1687C29.2782 32.0804 29.1479 31.9739 28.9773 31.8344L27.0776 34.1562ZM25.9636 33.2448L27.0776 34.1562L28.9773 31.8344L27.8633 30.9229L25.9636 33.2448ZM25.9532 33.2362L25.9532 33.2362L27.8737 30.9315L27.8737 30.9315L25.9532 33.2362ZM25.0288 32.1393C24.6297 32.3046 24.3783 32.0708 24.6451 32.2303C24.9138 32.391 25.2889 32.6927 25.9636 33.2448L27.8633 30.9229C27.2674 30.4354 26.6896 29.9574 26.1848 29.6556C25.6781 29.3526 24.8326 28.9734 23.8807 29.3676L25.0288 32.1393ZM25.1495 33.582C25.2362 32.7145 25.2881 32.236 25.3644 31.9324C25.4403 31.6309 25.4278 31.974 25.0288 32.1393L23.8807 29.3676C22.9289 29.7619 22.5991 30.6279 22.4551 31.2004C22.3116 31.7708 22.241 32.5174 22.1643 33.2835L25.1495 33.582ZM25.0062 35.015L25.1495 33.582L22.1643 33.2835L22.021 34.7165L25.0062 35.015ZM25.0136 34.8657V34.8657H22.0136V34.8657H25.0136ZM24.106 37.5204C24.5633 37.1066 24.7492 36.6038 24.8428 36.1998C24.9268 35.8375 24.9674 35.4031 25.0062 35.015L22.021 34.7165C21.9991 34.9358 21.9823 35.1032 21.9645 35.2459C21.9466 35.389 21.9319 35.4724 21.9204 35.5221C21.9091 35.5706 21.9088 35.5516 21.9347 35.5005C21.9655 35.4396 22.0178 35.364 22.093 35.296L24.106 37.5204ZM21.5235 38.1667C21.9135 38.1667 22.3499 38.1696 22.7187 38.1221C23.13 38.0691 23.6488 37.9341 24.106 37.5203L22.093 35.296C22.1682 35.2279 22.2486 35.1834 22.3123 35.1588C22.3657 35.1381 22.3846 35.1403 22.3352 35.1467C22.2846 35.1532 22.2002 35.1596 22.056 35.1631C21.9122 35.1666 21.7439 35.1667 21.5235 35.1667V38.1667ZM18.4768 38.1667H21.5235V35.1667H18.4768V38.1667ZM15.8943 37.5203C16.3516 37.9341 16.8703 38.0691 17.2816 38.1221C17.6505 38.1696 18.0868 38.1667 18.4768 38.1667V35.1667C18.2564 35.1667 18.0881 35.1666 17.9444 35.1631C17.8002 35.1596 17.7158 35.1532 17.6651 35.1467C17.6158 35.1403 17.6347 35.1381 17.6881 35.1588C17.7517 35.1834 17.8321 35.2279 17.9073 35.296L15.8943 37.5203ZM14.9942 35.015C15.033 35.403 15.0735 35.8375 15.1575 36.1998C15.2512 36.6038 15.4371 37.1065 15.8943 37.5203L17.9073 35.296C17.9825 35.364 18.0348 35.4396 18.0657 35.5005C18.0916 35.5516 18.0912 35.5706 18.08 35.5221C18.0684 35.4724 18.0537 35.389 18.0358 35.2459C18.0181 35.1032 18.0012 34.9358 17.9793 34.7165L14.9942 35.015ZM14.851 33.5827L14.9942 35.015L17.9793 34.7165L17.8361 33.2842L14.851 33.5827ZM14.9716 32.1399C14.5726 31.9747 14.5601 31.6315 14.636 31.933C14.7123 32.2366 14.7642 32.7152 14.851 33.5827L17.8361 33.2842C17.7595 32.5181 17.6888 31.7715 17.5453 31.2011C17.4013 30.6286 17.0715 29.7626 16.1197 29.3683L14.9716 32.1399ZM14.0368 33.2454C14.7116 32.6934 15.0866 32.3917 15.3553 32.231C15.6221 32.0714 15.3707 32.3052 14.9716 32.1399L16.1197 29.3683C15.1678 28.974 14.3223 29.3532 13.8156 29.6562C13.3108 29.9581 12.733 30.4361 12.1371 30.9236L14.0368 33.2454ZM12.9227 34.157L14.0368 33.2454L12.1371 30.9236L11.023 31.8351L12.9227 34.157ZM10.5147 35.2921C11.1306 35.3228 11.6175 35.0987 11.9694 34.8793C12.285 34.6825 12.6209 34.4039 12.9227 34.157L11.023 31.8351C10.8524 31.9747 10.7221 32.0812 10.6086 32.1695C10.4948 32.2581 10.4255 32.3066 10.3821 32.3336C10.3399 32.3599 10.3531 32.3462 10.4075 32.3284C10.4724 32.3072 10.5628 32.2907 10.6641 32.2958L10.5147 35.2921ZM8.23151 33.923C8.50728 34.1988 8.81375 34.5094 9.10817 34.7366C9.4365 34.9899 9.89873 35.2613 10.5147 35.2921L10.6641 32.2958C10.7654 32.3008 10.8537 32.3262 10.9162 32.3538C10.9685 32.3769 10.9803 32.3919 10.9409 32.3615C10.9005 32.3303 10.8363 32.2751 10.7318 32.1756C10.6277 32.0765 10.5087 31.9575 10.3528 31.8017L8.23151 33.923ZM6.07715 31.7686L8.23151 33.923L10.3528 31.8017L8.19847 29.6473L6.07715 31.7686ZM4.7081 29.4855C4.73882 30.1014 5.01023 30.5637 5.26359 30.892C5.49079 31.1864 5.80138 31.4929 6.07715 31.7686L8.19847 29.6473C8.04262 29.4915 7.92369 29.3724 7.82453 29.2683C7.72505 29.1638 7.66987 29.0997 7.63866 29.0592C7.60827 29.0198 7.62322 29.0316 7.64636 29.084C7.67395 29.1464 7.69932 29.2347 7.70438 29.3361L4.7081 29.4855ZM5.84317 27.0774C5.59621 27.3793 5.31766 27.7151 5.12088 28.0307C4.90145 28.3826 4.67738 28.8696 4.7081 29.4855L7.70438 29.3361C7.70943 29.4374 7.69297 29.5278 7.67173 29.5927C7.65392 29.6471 7.64021 29.6603 7.66654 29.6181C7.69357 29.5747 7.74208 29.5053 7.83068 29.3915C7.91898 29.278 8.02547 29.1477 8.16505 28.9772L5.84317 27.0774ZM6.75468 25.9634L5.84318 27.0774L8.16505 28.9772L9.07655 27.8631L6.75468 25.9634ZM7.86017 25.0286C7.69489 24.6295 7.92869 24.3781 7.76913 24.6449C7.60845 24.9136 7.30673 25.2887 6.75468 25.9634L9.07655 27.8631C9.56407 27.2672 10.042 26.6894 10.3439 26.1846C10.6469 25.6779 11.0261 24.8324 10.6318 23.8805L7.86017 25.0286ZM6.41745 25.1493C7.28492 25.236 7.76347 25.2879 8.06709 25.3642C8.3686 25.4401 8.02546 25.4276 7.86017 25.0286L10.6318 23.8805C10.2375 22.9287 9.37153 22.5989 8.79902 22.4549C8.22862 22.3114 7.48202 22.2407 6.71596 22.1641L6.41745 25.1493ZM4.98523 25.006L6.41745 25.1493L6.71596 22.1641L5.28374 22.0209L4.98523 25.006ZM5.13447 25.0135H5.13449V22.0135H5.13447V25.0135ZM2.47986 24.1059C2.89367 24.5631 3.39642 24.749 3.80042 24.8427C4.1627 24.9267 4.59715 24.9672 4.98521 25.006L5.28373 22.0209C5.06441 21.999 4.89698 21.9822 4.75431 21.9644C4.61117 21.9465 4.52783 21.9318 4.47806 21.9202C4.42959 21.909 4.44863 21.9087 4.4997 21.9345C4.56059 21.9654 4.63616 22.0177 4.70422 22.0929L2.47986 24.1059ZM1.8335 21.5234C1.8335 21.9134 1.83058 22.3497 1.87812 22.7186C1.93113 23.1299 2.06606 23.6487 2.47986 24.1059L4.70422 22.0929C4.77229 22.1681 4.81681 22.2485 4.84145 22.3122C4.86211 22.3655 4.85987 22.3845 4.85351 22.3351C4.84698 22.2844 4.84061 22.2 4.83709 22.0558C4.83359 21.9121 4.8335 21.7438 4.8335 21.5234H1.8335ZM1.8335 18.4767V21.5234H4.8335V18.4767H1.8335ZM2.47986 15.8942C2.06606 16.3514 1.93113 16.8702 1.87812 17.2815C1.83058 17.6504 1.8335 18.0867 1.8335 18.4767H4.8335C4.8335 18.2563 4.83359 18.088 4.83709 17.9443C4.84061 17.8 4.84698 17.7156 4.85351 17.665C4.85987 17.6156 4.86211 17.6345 4.84145 17.6879C4.81681 17.7516 4.77229 17.832 4.70422 17.9072L2.47986 15.8942ZM4.98523 14.9941C4.59717 15.0329 4.16272 15.0734 3.80043 15.1574C3.39643 15.2511 2.89367 15.4369 2.47987 15.8942L4.70422 17.9072C4.63616 17.9824 4.56059 18.0347 4.49969 18.0656C4.44863 18.0914 4.42959 18.0911 4.47806 18.0798C4.52783 18.0683 4.61118 18.0536 4.75432 18.0357C4.89699 18.0179 5.06443 18.0011 5.28374 17.9792L4.98523 14.9941ZM6.41808 14.8508L4.98523 14.9941L5.28374 17.9792L6.71659 17.8359L6.41808 14.8508ZM7.86081 14.9715C8.02609 14.5724 8.36923 14.5599 8.06773 14.6358C7.76411 14.7122 7.28556 14.764 6.41808 14.8508L6.71659 17.8359C7.48265 17.7593 8.22926 17.6886 8.79965 17.5451C9.37216 17.4011 10.2382 17.0714 10.6324 16.1195L7.86081 14.9715ZM6.75531 14.0366C7.30737 14.7114 7.60908 15.0864 7.76976 15.3551C7.92932 15.622 7.69552 15.3705 7.86081 14.9715L10.6324 16.1195C11.0267 15.1677 10.6475 14.3221 10.3445 13.8155C10.0427 13.3107 9.5647 12.7328 9.07718 12.1369L6.75531 14.0366ZM5.84325 12.9219L6.75531 14.0366L9.07718 12.1369L8.16513 11.0222L5.84325 12.9219ZM4.70818 10.5139C4.67746 11.1298 4.90153 11.6167 5.12096 11.9686C5.31774 12.2842 5.59629 12.6201 5.84326 12.9219L8.16513 11.0222C8.02555 10.8516 7.91906 10.7213 7.83076 10.6078C7.74216 10.494 7.69365 10.4246 7.66662 10.3813C7.64029 10.3391 7.654 10.3523 7.67181 10.4067C7.69305 10.4716 7.70951 10.562 7.70445 10.6633L4.70818 10.5139ZM6.07723 8.23069C5.80146 8.50646 5.49087 8.81294 5.26367 9.10736C5.01031 9.43569 4.7389 9.89792 4.70818 10.5139L7.70445 10.6633C7.6994 10.7646 7.67403 10.8529 7.64644 10.9154C7.6233 10.9677 7.60835 10.9795 7.63874 10.9401C7.66995 10.8997 7.72513 10.8355 7.82461 10.731C7.92377 10.6269 8.0427 10.5079 8.19855 10.352L6.07723 8.23069ZM8.23159 6.07634L6.07723 8.23069L8.19855 10.352L10.3529 8.19766L8.23159 6.07634ZM10.5147 4.70729C9.89881 4.73801 9.43658 5.00942 9.10825 5.26278C8.81383 5.48998 8.50736 5.80057 8.23159 6.07634L10.3529 8.19766C10.5088 8.04181 10.6278 7.92288 10.7319 7.82372C10.8364 7.72424 10.9006 7.66906 10.941 7.63785C10.9804 7.60746 10.9686 7.62241 10.9163 7.64555C10.8538 7.67314 10.7655 7.69851 10.6642 7.70356L10.5147 4.70729ZM12.9228 5.84237C12.6209 5.5954 12.2851 5.31685 11.9695 5.12007C11.6176 4.90064 11.1307 4.67657 10.5147 4.70729L10.6642 7.70356C10.5629 7.70862 10.4725 7.69216 10.4076 7.67092C10.3532 7.65311 10.34 7.6394 10.3822 7.66573C10.4255 7.69276 10.4949 7.74127 10.6087 7.82987C10.7222 7.91817 10.8525 8.02466 11.0231 8.16424L12.9228 5.84237ZM14.0369 6.7539L12.9228 5.84236L11.0231 8.16424L12.1372 9.07577L14.0369 6.7539ZM14.9717 7.8594C15.3707 7.69411 15.6222 7.92791 15.3554 7.76835C15.0867 7.60767 14.7116 7.30596 14.0369 6.7539L12.1372 9.07577C12.733 9.56329 13.3109 10.0413 13.8157 10.3431C14.3224 10.6461 15.1679 11.0253 16.1198 10.631L14.9717 7.8594ZM14.851 6.41667C14.7643 7.28415 14.7124 7.7627 14.636 8.06632C14.5602 8.36782 14.5727 8.02468 14.9717 7.8594L16.1198 10.631C17.0716 10.2368 17.4014 9.37076 17.5454 8.79824C17.6889 8.22785 17.7595 7.48125 17.8361 6.71518L14.851 6.41667ZM14.9942 4.98511L14.851 6.41667L17.8361 6.71518L17.9793 5.28362L14.9942 4.98511ZM15.8943 2.47974C15.4371 2.89355 15.2512 3.39631 15.1575 3.80031C15.0735 4.16259 15.033 4.59705 14.9942 4.98511L17.9793 5.28362C18.0012 5.0643 18.0181 4.89686 18.0358 4.7542C18.0537 4.61105 18.0684 4.52771 18.08 4.47794C18.0912 4.42947 18.0916 4.44851 18.0657 4.49957C18.0348 4.56046 17.9825 4.63604 17.9073 4.7041L15.8943 2.47974ZM18.4768 1.83337C18.0868 1.83337 17.6505 1.83046 17.2816 1.878C16.8703 1.93101 16.3516 2.06594 15.8943 2.47974L17.9073 4.7041C17.8321 4.77216 17.7517 4.81669 17.6881 4.84133C17.6347 4.86199 17.6158 4.85975 17.6651 4.85339C17.7158 4.84686 17.8002 4.84048 17.9444 4.83697C18.0881 4.83347 18.2564 4.83337 18.4768 4.83337V1.83337ZM21.5235 1.83337H18.4768V4.83337H21.5235V1.83337ZM24.106 2.47974C23.6488 2.06594 23.13 1.93101 22.7187 1.878C22.3499 1.83046 21.9135 1.83337 21.5235 1.83337V4.83337C21.7439 4.83337 21.9122 4.83347 22.056 4.83697C22.2002 4.84048 22.2846 4.84686 22.3352 4.85339C22.3846 4.85975 22.3657 4.86199 22.3123 4.84133C22.2486 4.81669 22.1682 4.77216 22.093 4.7041L24.106 2.47974ZM25.0062 4.98509C24.9674 4.59703 24.9268 4.16258 24.8428 3.8003C24.7492 3.3963 24.5633 2.89354 24.106 2.47974L22.093 4.7041C22.0178 4.63604 21.9655 4.56047 21.9347 4.49957C21.9088 4.44851 21.9091 4.42947 21.9204 4.47794C21.9319 4.5277 21.9466 4.61105 21.9645 4.75419C21.9823 4.89685 21.9991 5.06429 22.021 5.28361L25.0062 4.98509ZM25.1668 20C25.1668 22.8535 22.8536 25.1667 20.0002 25.1667V28.1667C24.5105 28.1667 28.1668 24.5104 28.1668 20H25.1668ZM20.0002 14.8334C22.8536 14.8334 25.1668 17.1466 25.1668 20H28.1668C28.1668 15.4897 24.5105 11.8334 20.0002 11.8334V14.8334ZM14.8335 20C14.8335 17.1466 17.1467 14.8334 20.0002 14.8334V11.8334C15.4898 11.8334 11.8335 15.4897 11.8335 20H14.8335ZM20.0002 25.1667C17.1467 25.1667 14.8335 22.8535 14.8335 20H11.8335C11.8335 24.5104 15.4898 28.1667 20.0002 28.1667V25.1667Z" fill="#31587C"/>
</svg>
