<svg width="20" height="19" viewBox="0 0 20 19" fill="none" xmlns="http://www.w3.org/2000/svg">
<path d="M9.59638 1.05201C9.79613 0.77883 10.2039 0.778829 10.4036 1.05201L13.5494 5.3543C13.6111 5.4387 13.6977 5.50163 13.797 5.53424L18.8608 7.19655C19.1824 7.3021 19.3084 7.68989 19.1103 7.96427L15.9907 12.2855C15.9295 12.3703 15.8964 12.4721 15.8961 12.5767L15.8799 17.9063C15.8789 18.2448 15.549 18.4844 15.2269 18.3808L10.1531 16.7492C10.0535 16.7172 9.94647 16.7172 9.84693 16.7492L4.77314 18.3808C4.45098 18.4844 4.1211 18.2448 4.12008 17.9063L4.10394 12.5767C4.10362 12.4721 4.07053 12.3703 4.00934 12.2855L0.889702 7.96427C0.691617 7.68989 0.817618 7.3021 1.13915 7.19655L6.20296 5.53424C6.3023 5.50163 6.38892 5.4387 6.45063 5.3543L9.59638 1.05201Z" fill="#F4C867"/>
</svg>
