<svg width="90" height="102" viewBox="0 0 90 102" fill="none" xmlns="http://www.w3.org/2000/svg">
<path d="M85.4569 41.4411C85.6401 35.4659 84.4805 29.5354 82.0859 24.2003C80.4611 22.0111 78.2063 20.5338 75.7142 20.0257C65.4067 18.9718 55.0565 18.5398 44.708 18.7316C34.3973 18.5311 24.0843 18.9491 13.813 19.984C11.7823 20.4003 9.90302 21.4736 8.4045 23.0732C5.0705 26.538 4.70006 32.4659 4.32962 37.4753C3.79215 46.4821 3.79215 55.5195 4.32962 64.5263C4.43679 67.3458 4.80932 70.1445 5.44095 72.8754C5.88761 74.9838 6.7913 76.9345 8.0711 78.5528C9.5798 80.237 11.5028 81.3714 13.5907 81.8089C21.5772 82.9198 29.6244 83.3802 37.6696 83.1865C50.6351 83.3952 62.0078 83.1865 75.4549 82.0176C77.5941 81.607 79.5713 80.4711 81.1227 78.7615C82.1598 77.5923 82.9345 76.1611 83.3824 74.5869C84.7072 70.0059 85.3579 65.2114 85.3087 60.3935C85.4569 58.0558 85.4569 43.9458 85.4569 41.4411ZM36.336 62.8982V37.0579L58.2663 50.0407C52.1169 53.8812 44.0042 58.2228 36.336 62.8982Z" fill="#FF0033"/>
</svg>
