<svg width="30" height="30" viewBox="0 0 30 30" fill="none" xmlns="http://www.w3.org/2000/svg">
<path fill-rule="evenodd" clip-rule="evenodd" d="M3.37868 3.37868C2.5 4.25736 2.5 5.67157 2.5 8.5V21.5C2.5 24.3284 2.5 25.7426 3.37868 26.6213C4.25736 27.5 5.67157 27.5 8.5 27.5H21.5C24.3284 27.5 25.7426 27.5 26.6213 26.6213C27.5 25.7426 27.5 24.3284 27.5 21.5V8.5C27.5 5.67157 27.5 4.25736 26.6213 3.37868C25.7426 2.5 24.3284 2.5 21.5 2.5H8.5C5.67157 2.5 4.25736 2.5 3.37868 3.37868ZM22.0821 11.8047C22.3884 11.3452 22.2642 10.7243 21.8047 10.4179C21.3452 10.1116 20.7243 10.2358 20.4179 10.6953L16.3738 16.7615L15.4151 14.844C14.7283 13.4705 12.8139 13.3513 11.9621 14.6291L7.91795 20.6953C7.6116 21.1548 7.73577 21.7757 8.1953 22.0821C8.65483 22.3884 9.2757 22.2642 9.58205 21.8047L13.6262 15.7385L14.5849 17.656C15.2717 19.0295 17.1861 19.1487 18.0379 17.8709L22.0821 11.8047Z" fill="#31587C"/>
</svg>
